# xmcd
#
# Track frame offsets:
#	150
#	14112
#	49652
#	76063
#	88514
#	104819
#	143754
#	155005
#	167368
#	174410
#	183567
#	208755
#	241524
#
# Disc length: 4218 seconds
#
# Revision: 1
# Processed by: cddbd v1.5.2PL0 Copyright (c) Steve Scherf et al.
# Submitted via: audiograbber 1.83.01
#
DISCID=a410780d
DTITLE=Henry Toth - Blue
DYEAR=2006
DGENRE=Blues
TTITLE0=Celebration In Blue
TTITLE1=Hangover
TTITLE2=While The City Sleeps
TTITLE3=Two Sides Of The Coin
TTITLE4=Return To Memories
TTITLE5=Episode I
TTITLE6=Episode II
TTITLE7=Episode III
TTITLE8=Follow Me
TTITLE9=Open Fire
TTITLE10=Jam 1
TTITLE11=Jam 2
TTITLE12=Back In The Studio - Video
EXTD=Vydane na 2CD spolu s "H Breath"
EXTT0=
EXTT1=
EXTT2=
EXTT3=
EXTT4=
EXTT5=
EXTT6=
EXTT7=
EXTT8=
EXTT9=
EXTT10=
EXTT11=
EXTT12=
PLAYORDER=
